<?xml version="1.0" encoding="UTF-8"?><svg id="Layer_2" xmlns="http://www.w3.org/2000/svg" viewBox="0 0 110.74 110.74"><defs><style>.cls-1{fill:#fff;}.cls-2{fill:#2a4dd0;}</style></defs><g id="Layer_1-2"><circle class="cls-2" cx="55.37" cy="55.37" r="55.37"/><g><g><path class="cls-1" d="M52.73,28.59h.63c.03,.15,.14,.12,.25,.11,.11,.02,.21,.02,.26-.11h1.51c.05,.13,.15,.13,.26,.11,.1,.02,.21,.05,.25-.11h.5c.03,.14,.14,.11,.24,.13,.78,.13,1.57,.23,2.34,.43,3.38,.89,6.25,2.63,8.61,5.21,.25,.28,.48,.36,.86,.29,2-.35,4.01-.29,5.97,.23,6.12,1.63,10.06,5.51,11.85,11.58,.23,.77,.2,1.59,.52,2.34v.5c-.14,.04-.12,.14-.11,.25-.02,.11-.01,.21,.11,.26v2.26c-.09,.04-.1,.11-.11,.2-.71,5.47-3.47,9.57-8.26,12.31-.36,.2-.41,.43-.41,.8,0,7.09,.01,14.19,0,21.28,0,3.65-2.56,6.22-6.18,6.23-11.47,.01-22.94,0-34.41,0-.95,0-1.87-.15-2.73-.59-2.34-1.19-3.43-3.13-3.42-5.73,0-7.03,0-14.06,.03-21.1,0-.48-.14-.73-.56-.96-6.07-3.35-9.31-10.35-7.94-17.12,1.7-8.39,9.64-14,17.91-12.75,.52,.08,.8-.07,1.12-.42,2.65-2.84,5.88-4.62,9.7-5.34,.41-.08,.86-.03,1.23-.3Zm-13.32,8.83c-1.46-.13-2.8,.02-4.13,.36-5.81,1.48-10.01,6.81-9.88,12.8,.12,5.35,2.66,9.31,7.43,11.75,.98,.5,1.37,1.1,1.36,2.19-.05,4.35-.02,8.71-.05,13.06,0,.55,.11,.73,.7,.73,13.19-.02,26.37-.02,39.56,0,.56,0,.69-.13,.68-.68-.03-4.5,0-9-.02-13.5,0-.78,.3-1.32,1.02-1.63,.17-.07,.34-.16,.51-.25,5.26-2.61,8.26-8.73,6.96-14.38-1.12-4.88-4.09-8.18-8.82-9.84-1.56-.55-3.18-.75-4.9-.59,.09,.19,.14,.33,.21,.45,.79,1.46,1.37,3,1.7,4.62,.26,1.27,.48,2.55,.33,3.86-.09,.74-.66,1.2-1.37,1.21-.71,.01-1.28-.44-1.42-1.16-.07-.35-.09-.7-.11-1.06-.15-2.83-1-5.43-2.7-7.69-3.56-4.73-8.31-6.73-14.21-5.94-5.38,.72-10.39,5.19-11.74,10.46-.33,1.3-.46,2.63-.57,3.96-.07,.96-.74,1.49-1.57,1.42-.82-.07-1.35-.73-1.32-1.68,.03-1.17,.16-2.33,.41-3.48,.38-1.73,1.02-3.34,1.92-4.98Zm15.2,43.79c-6.61,0-13.22,0-19.83,0-.46,0-.64,.07-.63,.6,.04,1.61,0,3.22,.01,4.83,0,2.07,1.25,3.35,3.31,3.35,11.44,0,22.89,0,34.33,0,2.02,0,3.27-1.29,3.28-3.31,0-1.61-.02-3.22,.02-4.83,.01-.54-.14-.64-.65-.64-6.61,.02-13.22,.01-19.83,.01Z"/><path class="cls-1" d="M53.6,28.7c-.1,.02-.21,.05-.25-.11h.25s0,.07,0,.11Z"/><path class="cls-1" d="M53.6,28.7s0-.07,0-.11h.25c-.05,.13-.15,.13-.26,.11Z"/><path class="cls-1" d="M55.62,28.7c-.11,.02-.21,.02-.26-.11h.25s0,.07,0,.11Z"/><path class="cls-1" d="M55.62,28.7s0-.07,0-.11h.25c-.03,.15-.14,.12-.25,.11Z"/><path class="cls-1" d="M86.66,49.56c-.01-.1-.04-.21,.11-.25v.25s-.07,0-.11,0Z"/><path class="cls-1" d="M86.66,49.56s.07,0,.11,0v.25c-.12-.05-.13-.15-.11-.26Z"/><path class="cls-1" d="M37.11,59.69c-.08-1.02,.41-1.72,1.22-1.83,.83-.12,1.52,.38,1.64,1.32,.3,2.51,1.7,4.49,3.02,6.51,.35,.54,.79,1.03,1.13,1.57,.43,.69,.27,1.51-.34,1.95-.63,.46-1.45,.4-1.97-.24-1.95-2.44-3.65-5.02-4.52-8.07-.05-.18-.09-.37-.12-.55-.04-.25-.05-.5-.07-.66Z"/><path class="cls-1" d="M72.13,59.69c-.23,2.13-1.17,3.99-2.24,5.79-.67,1.13-1.44,2.21-2.25,3.24-.66,.83-1.45,1.02-2.17,.5-.71-.51-.79-1.43-.16-2.27,.97-1.28,1.87-2.62,2.66-4.02,.69-1.23,1.17-2.53,1.34-3.94,.08-.66,.54-1.02,1.18-1.12,.65-.1,1.15,.17,1.47,.73,.19,.34,.22,.71,.18,1.1Z"/><path class="cls-1" d="M56.08,63.69c0,1.38,0,2.76,0,4.14,0,.64-.2,1.2-.81,1.51-.5,.25-1,.22-1.47-.1-.3-.21-.55-.48-.57-.86-.14-3.13-.15-6.26,0-9.38,.03-.62,.56-1.04,1.17-1.13,.63-.09,1.23,.21,1.5,.78,.16,.32,.18,.68,.18,1.04,0,1.34,0,2.67,0,4.01Z"/></g><path class="cls-1" d="M46.16,27.81c0-.81-.02-1.62,.01-2.43,.01-.35-.12-.41-.41-.45-1.33-.19-2.55-.67-3.59-1.53-1.35-1.11-2.06-2.6-2.4-4.28-.84-4.15,2-8.05,6-9,3.8-.91,9.93,.11,12.95,5.12,.25,.41,.66,.6,1.08,.78,1.01,.43,2.08,.51,3.17,.44,1.31-.08,2.59-.35,3.84-.76,1.54-.5,2.94-.25,4.1,.91,.74,.74,1,1.69,1.13,2.7,.34,2.58-1.25,5.53-3.57,6.62-1.24,.58-2.55,.64-3.88,.48-.48-.06-.96-.15-1.44-.24-.21-.04-.27,0-.27,.23,.01,1.23-.02,2.46,.02,3.69,.02,.7-.3,1.14-.87,1.46-.68,.39-1.57-.99-2.34-.84-2.65,.53-5.31,.59-8,.37-1.32-.11-2.62-.29-3.88-.71-.46-.15-.77,1.24-1.15,.93-.33-.27-.5-.61-.49-1.06,.02-.81,0-1.62,0-2.44Zm13.59-10.59c.44,1.08,.76,2.16,.94,3.27,.06,.4-.11,.69-.44,.74-.35,.06-.59-.14-.66-.55-.09-.53-.2-1.05-.35-1.56-.69-2.29-1.78-4.34-3.7-5.83-2.7-2.09-5.81-2.74-9.12-2.18-3.73,.63-6.36,4.18-5.53,7.9,.63,2.8,2.17,4.23,4.82,4.78,.59,.12,.59,.11,.87-.43,.05-.09,.09-.2,.15-.27,.25-.29,.19-.47-.09-.74-1.39-1.34-1.88-3.07-2.07-4.91-.03-.31,.22-.57,.52-.58,.29-.02,.54,.2,.58,.53,.07,.52,.14,1.03,.29,1.54,.3,1.04,.73,2,1.55,2.74,.15,.14,.24,.16,.4,0,.32-.31,.69-.54,1.09-.73,.14-.07,.2-.11,.09-.27-.48-.76-.7-1.61-.82-2.49-.06-.43,.1-.72,.44-.78,.37-.06,.6,.16,.66,.62,.11,.76,.3,1.49,.72,2.16,.15,.24,.31,.32,.59,.27,.49-.09,.99-.07,1.49-.02,1.78,.19,3.29,.95,4.64,2.09,1.19,1,2.5,1.78,3.99,2.27,1.42,.47,3.27-.17,3.81-1.36,.1-.22,.32-.29,.56-.26,.4,.06,.56,.46,.36,.89-.23,.5-.64,.84-1.06,1.18,1.08,.31,2.8,.09,3.82-.49,1.9-1.08,3.02-3.69,2.52-5.88-.3-1.34-1.04-2.08-2.3-2.28-.54-.09-1.05,.05-1.57,.21-2.35,.73-4.73,1.11-7.21,.41Zm-12.47,11.72c4.84-1.32,9.65-1.33,14.48,0,0-.86,0-1.78,0-2.71,0-.2-.11-.19-.24-.19-.43-.02-.85-.12-1.25-.26-1.6-.55-3.01-1.43-4.29-2.51-1.12-.94-2.38-1.53-3.83-1.74-2.11-.3-4.06,.84-4.8,2.84-.04,.1-.06,.2-.06,.3,0,1.44,0,2.88,0,4.26Zm0,1.44c.37,.33,.79,.47,1.22,.6,1.85,.53,3.93,.37,5.84,.39,2.04,.02,3.91,.2,5.9-.32,.45-.12,.88-.26,1.29-.5,.22-.13,.2-.22,0-.35-.36-.22-.75-.35-1.15-.47-1.36-.38-2.75-.54-4.15-.6-2.45-.11-4.89-.05-7.29,.53-.58,.14-1.16,.29-1.65,.72Z"/></g></g></svg>