<?xml version="1.0" encoding="UTF-8"?><svg id="Layer_2" xmlns="http://www.w3.org/2000/svg" viewBox="0 0 311.25 60.98"><defs><style>.cls-1{fill:#fff;}.cls-2{fill:#2a4dd0;}</style></defs><g id="Layer_1-2"><g><g><path class="cls-2" d="M77.66,36.8l2.27-3.33c1.15,1.18,2.8,1.86,4.62,1.86,2.62,0,3.95-1.44,3.95-4.36v-11.96h4.59v12.4c0,5.27-2.86,7.98-8.16,7.98-3.06,0-5.54-.91-7.27-2.59Z"/><path class="cls-2" d="M112.64,24.13v14.9h-4.42v-2.65c-1.47,2-3.36,3-5.71,3-3.39,0-5.36-2.06-5.36-5.54v-9.72h4.42v8.81c0,1.88,.91,2.8,2.74,2.8,1.56,0,2.89-.68,3.92-2v-9.6h4.42Z"/><path class="cls-2" d="M116.94,18.13h4.42v20.91h-4.42V18.13Z"/><path class="cls-2" d="M125.39,19.42c0-1.38,1-2.36,2.47-2.36s2.47,.97,2.47,2.36-1,2.36-2.47,2.36-2.47-.97-2.47-2.36Zm.26,4.71h4.42v14.9h-4.42v-14.9Z"/><path class="cls-2" d="M149.1,30.79v8.25h-4.42v-2.65c-1.3,1.91-3.47,3-6.01,3-3.3,0-5.33-1.8-5.33-4.74s2.12-4.74,5.83-4.74c2,0,4.09,.5,5.51,1.29v-.15c0-2.5-1.38-3.68-4.3-3.68-1.77,0-3.3,.44-4.92,1.38l-1.47-3.18c2.03-1.24,4.27-1.8,7.13-1.8,5.57,0,7.98,2.12,7.98,7.01Zm-4.42,2.89c-1.24-.56-2.83-.88-4.15-.88-1.77,0-2.68,.59-2.68,1.68,0,1.03,.82,1.62,2.36,1.62,1.71,0,3.33-.74,4.48-2.06v-.35Z"/><path class="cls-2" d="M158.05,21.95c0,3.18-1.94,5.71-4.89,6.36l-.65-1.94c1.47-.38,2.5-1.44,2.74-2.74-1.38-.03-2.42-1.09-2.42-2.47s1.06-2.5,2.47-2.5c1.74,0,2.74,1.21,2.74,3.3Z"/><path class="cls-2" d="M160.46,37.3l1.47-3.06c1.74,1.15,3.92,1.83,6.6,1.83,2.18,0,3.18-.44,3.18-1.27,0-.88-.62-1.12-3.45-1.38-5.36-.5-7.1-1.68-7.1-4.83s2.71-4.8,7.24-4.8c2.74,0,5.12,.62,6.92,1.8l-1.41,2.92c-1.44-.88-3.18-1.38-5.33-1.38-1.97,0-2.97,.44-2.97,1.24,0,.88,.65,1.12,3.47,1.38,5.3,.5,7.07,1.68,7.07,4.83s-2.65,4.83-7.6,4.83c-3.33,0-6.16-.77-8.1-2.09Z"/><path class="cls-2" d="M188.2,30.44c0-6.8,5.33-11.78,12.69-11.78,2.86,0,5.21,.74,7.04,2.18l-.97,1.62c-1.83-1.38-3.86-1.97-6.16-1.97-6.18,0-10.57,4.27-10.57,9.87,0,4.62,3.03,7.21,8.01,7.21,2.65,0,4.95-.74,7.24-2.27l.71,1.74c-2.24,1.56-5.21,2.36-8.19,2.36-6.07,0-9.81-3.27-9.81-8.95Z"/><path class="cls-2" d="M225.71,28.52c0,.38-.03,.83-.09,1.27l-1.47,9.25h-1.88l1.44-9.04c.06-.38,.09-.74,.09-1.06,0-2.12-1.24-3.21-3.59-3.21-2.53,0-4.83,1.21-6.89,3.36l.15-.91-1.74,10.87h-1.88l3.33-20.91h1.88l-1.47,9.22c2.18-2.24,4.57-3.33,7.19-3.33,3.18,0,4.95,1.65,4.95,4.51Z"/><path class="cls-2" d="M231.42,24.37h1.88l-2.36,14.67h-1.88l2.36-14.67Zm.21-4.36c0-.85,.65-1.47,1.53-1.47,.79,0,1.33,.47,1.33,1.24,0,.82-.65,1.47-1.53,1.47-.79,0-1.33-.47-1.33-1.24Z"/><path class="cls-2" d="M239.46,18.13h1.88l-3.33,20.91h-1.88l3.33-20.91Z"/><path class="cls-2" d="M261.11,18.13l-3.33,20.91h-1.88l.47-2.97c-1.97,2.21-4.21,3.33-6.74,3.33-3.83,0-6.27-2.5-6.27-6.42,0-4.77,3.62-8.95,8.57-8.95,2.53,0,4.51,1.09,5.8,3.39l1.5-9.28h1.88Zm-3.62,10.84c-1.21-2.12-3.12-3.24-5.42-3.24-3.98,0-6.77,3.36-6.77,7.16,0,3.03,1.77,4.8,4.71,4.8,2.38,0,4.68-1.18,6.63-3.39l.85-5.33Z"/><path class="cls-2" d="M275.18,24.13l-.32,1.83c-.38-.09-.94-.09-1.33-.09-2.65,0-4.92,1.12-7.16,3.45l-1.56,9.72h-1.88l2.36-14.67h1.88l-.53,3.24c2.12-2.38,4.48-3.59,7.27-3.59,.53,0,.94,.03,1.27,.12Z"/><path class="cls-2" d="M292.64,30.35c0,.62-.09,1.33-.18,1.91h-14.25c-.03,.15-.03,.32-.03,.47,0,3.24,2.21,4.95,6.04,4.95,2.3,0,4.18-.62,6.04-1.94l.62,1.62c-2.03,1.38-4.3,2.03-6.83,2.03-4.89,0-7.8-2.39-7.8-6.57,0-4.95,4-8.81,9.34-8.81,4.33,0,7.07,2.53,7.07,6.33Zm-1.83,.32v-.18c0-2.89-2-4.77-5.27-4.77-3.48,0-6.16,2.12-7.04,4.95h12.31Z"/><path class="cls-2" d="M311.25,28.52c0,.38-.03,.83-.09,1.27l-1.47,9.25h-1.88l1.44-9.04c.06-.38,.09-.74,.09-1.06,0-2.12-1.24-3.21-3.59-3.21-2.53,0-4.83,1.21-6.89,3.36l-1.59,9.95h-1.88l2.36-14.67h1.88l-.47,2.95c2.18-2.21,4.54-3.3,7.16-3.3,3.18,0,4.95,1.65,4.95,4.51Z"/></g><g><circle class="cls-2" cx="30.49" cy="30.49" r="30.49"/><g><g><path class="cls-1" d="M29.04,15.74h.35c.02,.08,.08,.07,.14,.06,.06,.01,.12,.01,.14-.06h.83c.03,.07,.08,.07,.14,.06,.06,0,.12,.03,.14-.06h.28c.02,.08,.08,.06,.13,.07,.43,.07,.86,.13,1.29,.24,1.86,.49,3.44,1.45,4.74,2.87,.14,.15,.26,.2,.47,.16,1.1-.19,2.21-.16,3.29,.13,3.37,.9,5.54,3.04,6.53,6.38,.13,.42,.11,.88,.29,1.29v.28c-.08,.02-.07,.08-.06,.13-.01,.06,0,.11,.06,.14v1.24s-.06,.06-.06,.11c-.39,3.01-1.91,5.27-4.55,6.78-.2,.11-.23,.24-.23,.44,0,3.91,0,7.81,0,11.72,0,2.01-1.41,3.43-3.4,3.43-6.32,0-12.63,0-18.95,0-.52,0-1.03-.08-1.5-.32-1.29-.66-1.89-1.72-1.89-3.16,0-3.87,0-7.74,.02-11.62,0-.27-.08-.4-.31-.53-3.35-1.85-5.13-5.7-4.37-9.43,.94-4.62,5.31-7.71,9.86-7.02,.29,.04,.44-.04,.62-.23,1.46-1.57,3.24-2.55,5.34-2.94,.23-.04,.47-.02,.68-.16Zm-7.34,4.86c-.81-.07-1.54,.01-2.27,.2-3.2,.82-5.51,3.75-5.44,7.05,.06,2.95,1.46,5.13,4.09,6.47,.54,.27,.76,.6,.75,1.21-.03,2.4-.01,4.79-.03,7.19,0,.3,.06,.4,.39,.4,7.26-.01,14.52-.01,21.78,0,.31,0,.38-.07,.38-.38-.01-2.48,0-4.96-.01-7.43,0-.43,.17-.73,.56-.9,.09-.04,.19-.09,.28-.14,2.9-1.44,4.55-4.81,3.83-7.92-.62-2.69-2.25-4.5-4.85-5.42-.86-.3-1.75-.41-2.7-.33,.05,.11,.08,.18,.12,.25,.43,.8,.75,1.65,.94,2.55,.14,.7,.26,1.41,.18,2.12-.05,.41-.36,.66-.75,.67-.39,0-.71-.24-.78-.64-.04-.19-.05-.39-.06-.58-.08-1.56-.55-2.99-1.49-4.23-1.96-2.61-4.58-3.7-7.82-3.27-2.96,.4-5.72,2.86-6.46,5.76-.18,.72-.25,1.45-.31,2.18-.04,.53-.41,.82-.87,.78-.45-.04-.74-.4-.73-.92,.02-.65,.09-1.28,.22-1.92,.21-.95,.56-1.84,1.06-2.74Zm8.37,24.11c-3.64,0-7.28,0-10.92,0-.25,0-.35,.04-.35,.33,.02,.89,0,1.77,0,2.66,0,1.14,.69,1.84,1.82,1.84,6.3,0,12.6,0,18.91,0,1.11,0,1.8-.71,1.81-1.82,0-.89-.01-1.77,0-2.66,0-.3-.08-.35-.36-.35-3.64,.01-7.28,0-10.92,0Z"/><path class="cls-1" d="M29.52,15.8c-.06,0-.12,.03-.14-.06h.14s0,.04,0,.06Z"/><path class="cls-1" d="M29.52,15.8s0-.04,0-.06h.14c-.03,.07-.08,.07-.14,.06Z"/><path class="cls-1" d="M30.63,15.8c-.06,.01-.11,.01-.14-.06h.14s0,.04,0,.06Z"/><path class="cls-1" d="M30.63,15.8s0-.04,0-.06h.14c-.02,.08-.08,.07-.14,.06Z"/><path class="cls-1" d="M47.72,27.29c0-.06-.02-.12,.06-.13v.14s-.04,0-.06,0Z"/><path class="cls-1" d="M47.72,27.29s.04,0,.06,0v.14c-.07-.03-.07-.08-.06-.14Z"/><path class="cls-1" d="M20.44,32.87c-.04-.56,.22-.94,.67-1.01,.46-.07,.84,.21,.9,.73,.17,1.38,.93,2.47,1.67,3.58,.2,.3,.43,.57,.62,.87,.24,.38,.15,.83-.19,1.08-.35,.25-.8,.22-1.08-.13-1.07-1.34-2.01-2.77-2.49-4.45-.03-.1-.05-.2-.06-.3-.02-.14-.03-.27-.04-.37Z"/><path class="cls-1" d="M39.72,32.87c-.13,1.17-.65,2.2-1.23,3.19-.37,.62-.79,1.22-1.24,1.79-.36,.46-.8,.56-1.2,.28-.39-.28-.44-.79-.09-1.25,.54-.71,1.03-1.44,1.46-2.22,.38-.68,.64-1.39,.74-2.17,.04-.36,.3-.56,.65-.62,.36-.06,.63,.09,.81,.4,.11,.19,.12,.39,.1,.6Z"/><path class="cls-1" d="M30.89,35.07c0,.76,0,1.52,0,2.28,0,.35-.11,.66-.45,.83-.28,.14-.55,.12-.81-.06-.17-.12-.3-.27-.31-.47-.08-1.72-.08-3.45,0-5.17,.02-.34,.31-.57,.64-.62,.35-.05,.68,.12,.83,.43,.09,.18,.1,.37,.1,.57,0,.74,0,1.47,0,2.21Z"/></g><path class="cls-1" d="M25.42,15.31c0-.45-.01-.89,0-1.34,0-.19-.07-.23-.23-.25-.73-.1-1.4-.37-1.98-.84-.74-.61-1.13-1.43-1.32-2.35-.46-2.29,1.1-4.43,3.3-4.96,2.09-.5,5.47,.06,7.13,2.82,.14,.23,.37,.33,.59,.43,.56,.24,1.15,.28,1.75,.24,.72-.04,1.42-.19,2.11-.42,.85-.28,1.62-.14,2.26,.5,.41,.41,.55,.93,.62,1.49,.19,1.42-.69,3.05-1.97,3.64-.68,.32-1.4,.35-2.14,.27-.27-.03-.53-.08-.79-.13-.11-.02-.15,0-.15,.13,0,.68-.01,1.35,0,2.03,.01,.39-.17,.63-.48,.8-.38,.21-.87-.54-1.29-.46-1.46,.29-2.93,.33-4.4,.2-.73-.06-1.44-.16-2.14-.39-.25-.08-.42,.69-.63,.51-.18-.15-.28-.34-.27-.58,.01-.45,0-.89,0-1.34Zm7.48-5.83c.24,.6,.42,1.19,.52,1.8,.03,.22-.06,.38-.24,.41-.19,.03-.32-.08-.36-.3-.05-.29-.11-.58-.19-.86-.38-1.26-.98-2.39-2.04-3.21-1.48-1.15-3.2-1.51-5.02-1.2-2.05,.35-3.5,2.3-3.05,4.35,.34,1.54,1.19,2.33,2.66,2.63,.32,.07,.32,.06,.48-.24,.03-.05,.05-.11,.08-.15,.14-.16,.11-.26-.05-.41-.76-.74-1.03-1.69-1.14-2.71-.02-.17,.12-.31,.29-.32,.16,0,.3,.11,.32,.29,.04,.29,.08,.57,.16,.85,.16,.57,.4,1.1,.85,1.51,.08,.07,.13,.09,.22,0,.18-.17,.38-.3,.6-.4,.08-.04,.11-.06,.05-.15-.26-.42-.38-.89-.45-1.37-.03-.24,.06-.4,.24-.43,.2-.03,.33,.09,.37,.34,.06,.42,.17,.82,.39,1.19,.08,.13,.17,.18,.33,.15,.27-.05,.55-.04,.82,0,.98,.1,1.81,.52,2.56,1.15,.65,.55,1.38,.98,2.2,1.25,.78,.26,1.8-.09,2.1-.75,.06-.12,.18-.16,.31-.14,.22,.03,.31,.25,.2,.49-.13,.27-.35,.46-.58,.65,.59,.17,1.54,.05,2.1-.27,1.05-.6,1.66-2.03,1.39-3.24-.17-.74-.57-1.14-1.26-1.25-.3-.05-.58,.03-.86,.12-1.3,.4-2.61,.61-3.97,.23Zm-6.87,6.45c2.67-.73,5.31-.74,7.97,0,0-.47,0-.98,0-1.49,0-.11-.06-.1-.13-.11-.24,0-.47-.07-.69-.14-.88-.3-1.66-.79-2.36-1.38-.62-.52-1.31-.84-2.11-.96-1.16-.16-2.24,.46-2.64,1.56-.02,.05-.03,.11-.03,.17,0,.79,0,1.58,0,2.35Zm0,.79c.2,.18,.44,.26,.67,.33,1.02,.29,2.16,.21,3.22,.22,1.13,.01,2.15,.11,3.25-.17,.25-.06,.49-.15,.71-.28,.12-.07,.11-.12,0-.19-.2-.12-.41-.2-.63-.26-.75-.21-1.51-.3-2.29-.33-1.35-.06-2.69-.03-4.01,.29-.32,.08-.64,.16-.91,.39Z"/></g></g></g></g></svg>