<?xml version="1.0" encoding="UTF-8"?><svg id="Layer_2" xmlns="http://www.w3.org/2000/svg" viewBox="0 0 192.79 59.71"><defs><style>.cls-1{font-size:29.45px;}.cls-1,.cls-2{fill:#2a4dd0;}.cls-3{fill:#fff;}.cls-4{font-family:CommutersSans-Bold, 'Commuters Sans';}.cls-5{font-family:CommutersSans-LightItalic, 'Commuters Sans';}.cls-6{letter-spacing:-.02em;}.cls-7{letter-spacing:0em;}.cls-8{letter-spacing:0em;}.cls-9{letter-spacing:0em;}</style></defs><g id="Layer_1-2"><g><circle class="cls-2" cx="28.37" cy="31.34" r="28.37"/><g><g><path class="cls-3" d="M27.02,17.62h.32c.02,.08,.07,.06,.13,.05,.06,.01,.11,.01,.13-.05h.77c.02,.06,.08,.07,.13,.05,.05,0,.11,.02,.13-.05h.26c.01,.07,.07,.06,.12,.07,.4,.06,.8,.12,1.2,.22,1.73,.46,3.2,1.35,4.41,2.67,.13,.14,.24,.18,.44,.15,1.03-.18,2.05-.15,3.06,.12,3.14,.83,5.15,2.82,6.07,5.94,.12,.39,.1,.82,.27,1.2v.26c-.07,.02-.06,.07-.05,.13-.01,.06,0,.11,.05,.13v1.16s-.05,.06-.06,.1c-.36,2.8-1.78,4.91-4.23,6.31-.18,.1-.21,.22-.21,.41,0,3.64,0,7.27,0,10.91,0,1.87-1.31,3.19-3.17,3.19-5.88,0-11.75,0-17.63,0-.49,0-.96-.08-1.4-.3-1.2-.61-1.76-1.61-1.76-2.94,0-3.6,0-7.21,.01-10.81,0-.25-.07-.37-.29-.49-3.11-1.72-4.77-5.3-4.07-8.77,.87-4.3,4.94-7.17,9.18-6.53,.27,.04,.41-.04,.57-.21,1.36-1.46,3.01-2.37,4.97-2.74,.21-.04,.44-.02,.63-.15Zm-6.83,4.52c-.75-.07-1.44,.01-2.11,.18-2.98,.76-5.13,3.49-5.06,6.56,.06,2.74,1.36,4.77,3.81,6.02,.5,.26,.7,.56,.7,1.12-.03,2.23-.01,4.46-.02,6.69,0,.28,.05,.37,.36,.37,6.76,0,13.51,0,20.27,0,.28,0,.35-.07,.35-.35-.01-2.31,0-4.61-.01-6.92,0-.4,.16-.68,.52-.83,.09-.04,.17-.08,.26-.13,2.7-1.34,4.23-4.47,3.57-7.37-.58-2.5-2.09-4.19-4.52-5.04-.8-.28-1.63-.38-2.51-.3,.05,.1,.07,.17,.11,.23,.4,.75,.7,1.54,.87,2.37,.13,.65,.24,1.31,.17,1.98-.04,.38-.34,.62-.7,.62-.36,0-.66-.22-.73-.59-.03-.18-.05-.36-.06-.54-.07-1.45-.51-2.78-1.38-3.94-1.83-2.43-4.26-3.45-7.28-3.04-2.76,.37-5.32,2.66-6.02,5.36-.17,.67-.24,1.35-.29,2.03-.04,.49-.38,.76-.81,.73-.42-.04-.69-.37-.68-.86,.02-.6,.08-1.2,.21-1.79,.19-.88,.52-1.71,.98-2.55Zm7.79,22.44c-3.39,0-6.78,0-10.16,0-.24,0-.33,.04-.32,.31,.02,.83,0,1.65,0,2.48,0,1.06,.64,1.72,1.7,1.72,5.86,0,11.73,0,17.59,0,1.03,0,1.68-.66,1.68-1.7,0-.83-.01-1.65,0-2.48,0-.27-.07-.33-.33-.33-3.39,0-6.78,0-10.16,0Z"/><path class="cls-3" d="M27.47,17.67c-.05,0-.11,.02-.13-.05h.13s0,.04,0,.05Z"/><path class="cls-3" d="M27.47,17.67s0-.04,0-.05h.13c-.02,.07-.08,.07-.13,.05Z"/><path class="cls-3" d="M28.5,17.68c-.06,.01-.11,0-.13-.05h.13s0,.04,0,.05Z"/><path class="cls-3" d="M28.5,17.68s0-.04,0-.05h.13c-.02,.08-.07,.06-.13,.05Z"/><path class="cls-3" d="M44.41,28.37c0-.05-.02-.11,.05-.13v.13s-.04,0-.05,0Z"/><path class="cls-3" d="M44.41,28.37s.04,0,.05,0v.13c-.06-.03-.06-.08-.05-.13Z"/><path class="cls-3" d="M19.02,33.56c-.04-.52,.21-.88,.62-.94,.42-.06,.78,.19,.84,.68,.16,1.28,.87,2.3,1.55,3.33,.18,.28,.4,.53,.58,.81,.22,.36,.14,.77-.17,1-.32,.24-.74,.21-1.01-.12-1-1.25-1.87-2.57-2.31-4.14-.03-.09-.05-.19-.06-.28-.02-.13-.03-.26-.04-.34Z"/><path class="cls-3" d="M36.96,33.56c-.12,1.09-.6,2.04-1.15,2.97-.34,.58-.74,1.13-1.15,1.66-.34,.43-.74,.52-1.11,.26-.36-.26-.41-.73-.08-1.16,.5-.66,.96-1.34,1.36-2.06,.35-.63,.6-1.3,.69-2.02,.04-.34,.28-.52,.6-.58,.33-.05,.59,.09,.75,.37,.1,.17,.11,.36,.09,.56Z"/><path class="cls-3" d="M28.74,35.61c0,.71,0,1.41,0,2.12,0,.33-.1,.62-.42,.77-.26,.13-.51,.11-.75-.05-.16-.11-.28-.25-.29-.44-.07-1.6-.08-3.21,0-4.81,.02-.32,.29-.53,.6-.58,.32-.05,.63,.11,.77,.4,.08,.17,.09,.35,.09,.53,0,.69,0,1.37,0,2.06Z"/></g><path class="cls-3" d="M23.65,17.22c0-.42-.01-.83,0-1.25,0-.18-.06-.21-.21-.23-.68-.1-1.31-.34-1.84-.78-.69-.57-1.05-1.33-1.23-2.19-.43-2.13,1.02-4.12,3.07-4.61,1.95-.47,5.09,.06,6.63,2.63,.13,.21,.34,.31,.55,.4,.52,.22,1.07,.26,1.62,.23,.67-.04,1.33-.18,1.97-.39,.79-.26,1.5-.13,2.1,.47,.38,.38,.51,.87,.58,1.39,.17,1.32-.64,2.83-1.83,3.39-.64,.3-1.3,.33-1.99,.25-.25-.03-.49-.07-.74-.12-.11-.02-.14,0-.14,.12,0,.63-.01,1.26,0,1.89,.01,.36-.16,.58-.44,.75-.35,.2-.81-.51-1.2-.43-1.36,.27-2.72,.3-4.1,.19-.68-.06-1.34-.15-1.99-.36-.24-.08-.39,.64-.59,.47-.17-.14-.26-.31-.25-.54,0-.42,0-.83,0-1.25Zm6.96-5.43c.23,.56,.39,1.11,.48,1.68,.03,.2-.06,.35-.22,.38-.18,.03-.3-.07-.34-.28-.04-.27-.1-.54-.18-.8-.35-1.17-.91-2.22-1.9-2.99-1.38-1.07-2.98-1.41-4.67-1.12-1.91,.32-3.26,2.14-2.84,4.05,.32,1.44,1.11,2.17,2.47,2.45,.3,.06,.3,.06,.45-.22,.02-.05,.04-.1,.08-.14,.13-.15,.1-.24-.05-.38-.71-.68-.96-1.57-1.06-2.52-.02-.16,.11-.29,.27-.3,.15,0,.28,.1,.3,.27,.03,.27,.07,.53,.15,.79,.15,.53,.37,1.02,.79,1.41,.08,.07,.12,.08,.2,0,.16-.16,.35-.28,.56-.38,.07-.03,.1-.06,.05-.14-.25-.39-.36-.82-.42-1.27-.03-.22,.05-.37,.22-.4,.19-.03,.31,.08,.34,.32,.05,.39,.16,.76,.37,1.11,.08,.12,.16,.17,.3,.14,.25-.05,.51-.04,.76,0,.91,.1,1.68,.49,2.38,1.07,.61,.51,1.28,.91,2.04,1.16,.73,.24,1.68-.09,1.95-.7,.05-.11,.16-.15,.29-.13,.21,.03,.29,.23,.19,.46-.12,.25-.33,.43-.54,.61,.55,.16,1.44,.05,1.96-.25,.97-.55,1.55-1.89,1.29-3.01-.15-.69-.53-1.06-1.18-1.17-.28-.04-.54,.03-.8,.11-1.21,.38-2.42,.57-3.7,.21Zm-6.39,6c2.48-.68,4.94-.68,7.42,0,0-.44,0-.91,0-1.39,0-.1-.06-.1-.13-.1-.22,0-.43-.06-.64-.13-.82-.28-1.54-.73-2.2-1.29-.57-.48-1.22-.78-1.96-.89-1.08-.15-2.08,.43-2.46,1.45-.02,.05-.03,.1-.03,.16,0,.74,0,1.47,0,2.18Zm0,.74c.19,.17,.41,.24,.63,.31,.95,.27,2.01,.19,2.99,.2,1.05,.01,2,.1,3.02-.16,.23-.06,.45-.14,.66-.26,.11-.07,.1-.11,0-.18-.19-.11-.39-.18-.59-.24-.7-.19-1.41-.28-2.13-.31-1.25-.06-2.51-.03-3.73,.27-.3,.07-.6,.15-.84,.37Z"/></g></g><text class="cls-1" transform="translate(68.62 24.73)"><tspan class="cls-4"><tspan x="0" y="0">Julia</tspan><tspan class="cls-6" x="74.08" y="0">’</tspan><tspan x="82.68" y="0">s </tspan></tspan><tspan class="cls-5"><tspan class="cls-9" x="-3" y="27.33">C</tspan><tspan class="cls-8" x="19.41" y="27.33">hild</tspan><tspan class="cls-7" x="72.5" y="27.33">r</tspan><tspan x="85.69" y="27.33">en</tspan></tspan></text></g></svg>