<?xml version="1.0" encoding="UTF-8"?><svg id="Layer_2" xmlns="http://www.w3.org/2000/svg" viewBox="0 0 190.85 56.95"><defs><style>.cls-1{fill:#fff;}.cls-2{fill:#2a4dd0;}</style></defs><g id="Layer_1-2"><g><g><circle class="cls-2" cx="28.37" cy="28.58" r="28.37"/><g><g><path class="cls-1" d="M27.02,14.86h.32c.02,.08,.07,.06,.13,.05,.06,.01,.11,.01,.13-.05h.77c.02,.06,.08,.07,.13,.05,.05,0,.11,.02,.13-.05h.26c.01,.07,.07,.06,.12,.07,.4,.06,.8,.12,1.2,.22,1.73,.46,3.2,1.35,4.41,2.67,.13,.14,.24,.18,.44,.15,1.03-.18,2.05-.15,3.06,.12,3.14,.83,5.15,2.82,6.07,5.94,.12,.39,.1,.82,.27,1.2v.26c-.07,.02-.06,.07-.05,.13-.01,.06,0,.11,.05,.13v1.16s-.05,.06-.06,.1c-.36,2.8-1.78,4.91-4.23,6.31-.18,.1-.21,.22-.21,.41,0,3.64,0,7.27,0,10.91,0,1.87-1.31,3.19-3.17,3.19-5.88,0-11.75,0-17.63,0-.49,0-.96-.08-1.4-.3-1.2-.61-1.76-1.61-1.76-2.94,0-3.6,0-7.21,.01-10.81,0-.25-.07-.37-.29-.49-3.11-1.72-4.77-5.3-4.07-8.77,.87-4.3,4.94-7.17,9.18-6.53,.27,.04,.41-.04,.57-.21,1.36-1.46,3.01-2.37,4.97-2.74,.21-.04,.44-.02,.63-.15Zm-6.83,4.52c-.75-.07-1.44,.01-2.11,.18-2.98,.76-5.13,3.49-5.06,6.56,.06,2.74,1.36,4.77,3.81,6.02,.5,.26,.7,.56,.7,1.12-.03,2.23-.01,4.46-.02,6.69,0,.28,.05,.37,.36,.37,6.76,0,13.51,0,20.27,0,.28,0,.35-.07,.35-.35-.01-2.31,0-4.61-.01-6.92,0-.4,.16-.68,.52-.83,.09-.04,.17-.08,.26-.13,2.7-1.34,4.23-4.47,3.57-7.37-.58-2.5-2.09-4.19-4.52-5.04-.8-.28-1.63-.38-2.51-.3,.05,.1,.07,.17,.11,.23,.4,.75,.7,1.54,.87,2.37,.13,.65,.24,1.31,.17,1.98-.04,.38-.34,.62-.7,.62-.36,0-.66-.22-.73-.59-.03-.18-.05-.36-.06-.54-.07-1.45-.51-2.78-1.38-3.94-1.83-2.43-4.26-3.45-7.28-3.04-2.76,.37-5.32,2.66-6.02,5.36-.17,.67-.24,1.35-.29,2.03-.04,.49-.38,.76-.81,.73-.42-.04-.69-.37-.68-.86,.02-.6,.08-1.2,.21-1.79,.19-.88,.52-1.71,.98-2.55Zm7.79,22.44c-3.39,0-6.78,0-10.16,0-.24,0-.33,.04-.32,.31,.02,.83,0,1.65,0,2.48,0,1.06,.64,1.72,1.7,1.72,5.86,0,11.73,0,17.59,0,1.03,0,1.68-.66,1.68-1.7,0-.83-.01-1.65,0-2.48,0-.27-.07-.33-.33-.33-3.39,0-6.78,0-10.16,0Z"/><path class="cls-1" d="M27.47,14.91c-.05,0-.11,.02-.13-.05h.13s0,.04,0,.05Z"/><path class="cls-1" d="M27.47,14.91s0-.04,0-.05h.13c-.02,.07-.08,.07-.13,.05Z"/><path class="cls-1" d="M28.5,14.91c-.06,.01-.11,0-.13-.05h.13s0,.04,0,.05Z"/><path class="cls-1" d="M28.5,14.91s0-.04,0-.05h.13c-.02,.08-.07,.06-.13,.05Z"/><path class="cls-1" d="M44.41,25.6c0-.05-.02-.11,.05-.13v.13s-.04,0-.05,0Z"/><path class="cls-1" d="M44.41,25.6s.04,0,.05,0v.13c-.06-.03-.06-.08-.05-.13Z"/><path class="cls-1" d="M19.02,30.79c-.04-.52,.21-.88,.62-.94,.42-.06,.78,.19,.84,.68,.16,1.28,.87,2.3,1.55,3.33,.18,.28,.4,.53,.58,.81,.22,.36,.14,.77-.17,1-.32,.24-.74,.21-1.01-.12-1-1.25-1.87-2.57-2.31-4.14-.03-.09-.05-.19-.06-.28-.02-.13-.03-.26-.04-.34Z"/><path class="cls-1" d="M36.96,30.79c-.12,1.09-.6,2.04-1.15,2.97-.34,.58-.74,1.13-1.15,1.66-.34,.43-.74,.52-1.11,.26-.36-.26-.41-.73-.08-1.16,.5-.66,.96-1.34,1.36-2.06,.35-.63,.6-1.3,.69-2.02,.04-.34,.28-.52,.6-.58,.33-.05,.59,.09,.75,.37,.1,.17,.11,.36,.09,.56Z"/><path class="cls-1" d="M28.74,32.84c0,.71,0,1.41,0,2.12,0,.33-.1,.62-.42,.77-.26,.13-.51,.11-.75-.05-.16-.11-.28-.25-.29-.44-.07-1.6-.08-3.21,0-4.81,.02-.32,.29-.53,.6-.58,.32-.05,.63,.11,.77,.4,.08,.17,.09,.35,.09,.53,0,.69,0,1.37,0,2.06Z"/></g><path class="cls-1" d="M23.65,14.45c0-.42-.01-.83,0-1.25,0-.18-.06-.21-.21-.23-.68-.1-1.31-.34-1.84-.78-.69-.57-1.05-1.33-1.23-2.19-.43-2.13,1.02-4.12,3.07-4.61,1.95-.47,5.09,.06,6.63,2.63,.13,.21,.34,.31,.55,.4,.52,.22,1.07,.26,1.62,.23,.67-.04,1.33-.18,1.97-.39,.79-.26,1.5-.13,2.1,.47,.38,.38,.51,.87,.58,1.39,.17,1.32-.64,2.83-1.83,3.39-.64,.3-1.3,.33-1.99,.25-.25-.03-.49-.07-.74-.12-.11-.02-.14,0-.14,.12,0,.63-.01,1.26,0,1.89,.01,.36-.16,.58-.44,.75-.35,.2-.81-.51-1.2-.43-1.36,.27-2.72,.3-4.1,.19-.68-.06-1.34-.15-1.99-.36-.24-.08-.39,.64-.59,.47-.17-.14-.26-.31-.25-.54,0-.42,0-.83,0-1.25Zm6.96-5.43c.23,.56,.39,1.11,.48,1.68,.03,.2-.06,.35-.22,.38-.18,.03-.3-.07-.34-.28-.04-.27-.1-.54-.18-.8-.35-1.17-.91-2.22-1.9-2.99-1.38-1.07-2.98-1.41-4.67-1.12-1.91,.32-3.26,2.14-2.84,4.05,.32,1.44,1.11,2.17,2.47,2.45,.3,.06,.3,.06,.45-.22,.02-.05,.04-.1,.08-.14,.13-.15,.1-.24-.05-.38-.71-.68-.96-1.57-1.06-2.52-.02-.16,.11-.29,.27-.3,.15,0,.28,.1,.3,.27,.03,.27,.07,.53,.15,.79,.15,.53,.37,1.02,.79,1.41,.08,.07,.12,.08,.2,0,.16-.16,.35-.28,.56-.38,.07-.03,.1-.06,.05-.14-.25-.39-.36-.82-.42-1.27-.03-.22,.05-.37,.22-.4,.19-.03,.31,.08,.34,.32,.05,.39,.16,.76,.37,1.11,.08,.12,.16,.17,.3,.14,.25-.05,.51-.04,.76,0,.91,.1,1.68,.49,2.38,1.07,.61,.51,1.28,.91,2.04,1.16,.73,.24,1.68-.09,1.95-.7,.05-.11,.16-.15,.29-.13,.21,.03,.29,.23,.19,.46-.12,.25-.33,.43-.54,.61,.55,.16,1.44,.05,1.96-.25,.97-.55,1.55-1.89,1.29-3.01-.15-.69-.53-1.06-1.18-1.17-.28-.04-.54,.03-.8,.11-1.21,.38-2.42,.57-3.7,.21Zm-6.39,6c2.48-.68,4.94-.68,7.42,0,0-.44,0-.91,0-1.39,0-.1-.06-.1-.13-.1-.22,0-.43-.06-.64-.13-.82-.28-1.54-.73-2.2-1.29-.57-.48-1.22-.78-1.96-.89-1.08-.15-2.08,.43-2.46,1.45-.02,.05-.03,.1-.03,.16,0,.74,0,1.47,0,2.18Zm0,.74c.19,.17,.41,.24,.63,.31,.95,.27,2.01,.19,2.99,.2,1.05,.01,2,.1,3.02-.16,.23-.06,.45-.14,.66-.26,.11-.07,.1-.11,0-.18-.19-.11-.39-.18-.59-.24-.7-.19-1.41-.28-2.13-.31-1.25-.06-2.51-.03-3.73,.27-.3,.07-.6,.15-.84,.37Z"/></g></g><g><path class="cls-2" d="M69.47,19.73l2.27-3.33c1.15,1.18,2.8,1.86,4.62,1.86,2.62,0,3.95-1.44,3.95-4.36V1.94h4.59V14.34c0,5.27-2.86,7.98-8.16,7.98-3.06,0-5.54-.91-7.27-2.59Z"/><path class="cls-2" d="M104.45,7.07v14.9h-4.42v-2.65c-1.47,2-3.36,3-5.71,3-3.39,0-5.36-2.06-5.36-5.54V7.07h4.42V15.87c0,1.88,.91,2.8,2.74,2.8,1.56,0,2.89-.68,3.92-2V7.07h4.42Z"/><path class="cls-2" d="M108.75,1.06h4.42V21.97h-4.42V1.06Z"/><path class="cls-2" d="M117.2,2.36c0-1.38,1-2.36,2.47-2.36s2.47,.97,2.47,2.36-1,2.36-2.47,2.36-2.47-.97-2.47-2.36Zm.26,4.71h4.42v14.9h-4.42V7.07Z"/><path class="cls-2" d="M140.91,13.72v8.25h-4.42v-2.65c-1.3,1.91-3.47,3-6.01,3-3.3,0-5.33-1.8-5.33-4.74s2.12-4.74,5.83-4.74c2,0,4.09,.5,5.51,1.29v-.15c0-2.5-1.38-3.68-4.3-3.68-1.77,0-3.3,.44-4.92,1.38l-1.47-3.18c2.03-1.24,4.27-1.8,7.13-1.8,5.57,0,7.98,2.12,7.98,7.01Zm-4.42,2.89c-1.24-.56-2.83-.88-4.15-.88-1.77,0-2.68,.59-2.68,1.68,0,1.03,.82,1.62,2.36,1.62,1.71,0,3.33-.74,4.48-2.06v-.35Z"/><path class="cls-2" d="M149.86,4.89c0,3.18-1.94,5.71-4.89,6.36l-.65-1.94c1.47-.38,2.5-1.44,2.74-2.74-1.38-.03-2.42-1.09-2.42-2.47s1.06-2.5,2.47-2.5c1.74,0,2.74,1.21,2.74,3.3Z"/><path class="cls-2" d="M152.27,20.23l1.47-3.06c1.74,1.15,3.92,1.83,6.6,1.83,2.18,0,3.18-.44,3.18-1.27,0-.88-.62-1.12-3.45-1.38-5.36-.5-7.1-1.68-7.1-4.83s2.71-4.8,7.24-4.8c2.74,0,5.12,.62,6.92,1.8l-1.41,2.92c-1.44-.88-3.18-1.38-5.33-1.38-1.97,0-2.97,.44-2.97,1.24,0,.88,.65,1.12,3.47,1.38,5.3,.5,7.07,1.68,7.07,4.83s-2.65,4.83-7.6,4.83c-3.33,0-6.16-.77-8.1-2.09Z"/><path class="cls-2" d="M67.8,40.71c0-6.8,5.33-11.78,12.69-11.78,2.86,0,5.21,.74,7.04,2.18l-.97,1.62c-1.83-1.38-3.86-1.97-6.16-1.97-6.18,0-10.57,4.27-10.57,9.87,0,4.62,3.03,7.21,8.01,7.21,2.65,0,4.95-.74,7.24-2.27l.71,1.74c-2.24,1.56-5.21,2.36-8.19,2.36-6.07,0-9.81-3.27-9.81-8.95Z"/><path class="cls-2" d="M105.31,38.79c0,.38-.03,.83-.09,1.27l-1.47,9.25h-1.88l1.44-9.04c.06-.38,.09-.74,.09-1.06,0-2.12-1.24-3.21-3.59-3.21-2.53,0-4.83,1.21-6.89,3.36l.15-.91-1.74,10.87h-1.88l3.33-20.91h1.88l-1.47,9.22c2.18-2.24,4.57-3.33,7.19-3.33,3.18,0,4.95,1.65,4.95,4.51Z"/><path class="cls-2" d="M111.02,34.64h1.88l-2.36,14.67h-1.88l2.36-14.67Zm.21-4.36c0-.85,.65-1.47,1.53-1.47,.79,0,1.33,.47,1.33,1.24,0,.82-.65,1.47-1.53,1.47-.79,0-1.33-.47-1.33-1.24Z"/><path class="cls-2" d="M119.06,28.4h1.88l-3.33,20.91h-1.88l3.33-20.91Z"/><path class="cls-2" d="M140.7,28.4l-3.33,20.91h-1.88l.47-2.97c-1.97,2.21-4.21,3.33-6.74,3.33-3.83,0-6.27-2.5-6.27-6.42,0-4.77,3.62-8.95,8.57-8.95,2.53,0,4.51,1.09,5.8,3.39l1.5-9.28h1.88Zm-3.62,10.84c-1.21-2.12-3.12-3.24-5.42-3.24-3.98,0-6.77,3.36-6.77,7.16,0,3.03,1.77,4.8,4.71,4.8,2.38,0,4.68-1.18,6.63-3.39l.85-5.33Z"/><path class="cls-2" d="M154.78,34.4l-.32,1.83c-.38-.09-.94-.09-1.33-.09-2.65,0-4.92,1.12-7.16,3.45l-1.56,9.72h-1.88l2.36-14.67h1.88l-.53,3.24c2.12-2.38,4.48-3.59,7.27-3.59,.53,0,.94,.03,1.27,.12Z"/><path class="cls-2" d="M172.24,40.62c0,.62-.09,1.33-.18,1.91h-14.25c-.03,.15-.03,.32-.03,.47,0,3.24,2.21,4.95,6.04,4.95,2.3,0,4.18-.62,6.04-1.94l.62,1.62c-2.03,1.38-4.3,2.03-6.83,2.03-4.89,0-7.8-2.39-7.8-6.57,0-4.95,4-8.81,9.34-8.81,4.33,0,7.07,2.53,7.07,6.33Zm-1.83,.32v-.18c0-2.89-2-4.77-5.27-4.77-3.48,0-6.16,2.12-7.04,4.95h12.31Z"/><path class="cls-2" d="M190.85,38.79c0,.38-.03,.83-.09,1.27l-1.47,9.25h-1.88l1.44-9.04c.06-.38,.09-.74,.09-1.06,0-2.12-1.24-3.21-3.59-3.21-2.53,0-4.83,1.21-6.89,3.36l-1.59,9.95h-1.88l2.36-14.67h1.88l-.47,2.95c2.18-2.21,4.54-3.3,7.16-3.3,3.18,0,4.95,1.65,4.95,4.51Z"/></g></g></g></svg>